<svg width="661" height="661" viewBox="0 0 661 661" fill="none" xmlns="http://www.w3.org/2000/svg">
<rect width="661" height="661" fill="#3151C2"/>
<mask id="path-1-inside-1_45_21" fill="white">
<path d="M360.209 183.107C370.37 183.731 379.096 185.636 388.08 189.176C396.159 192.362 404.18 196.925 411.424 202.488C415.316 205.463 416.704 206.745 424.654 214.742C431.592 221.704 433.474 223.491 436.084 225.584C439.283 228.16 443.364 230.735 447.574 232.84C453.701 235.898 459.205 237.968 471.811 241.954C484.289 245.894 502.105 251.88 517.499 257.278C527.319 260.723 534.433 263.863 539.725 267.086C545.935 270.872 554.002 276.164 559.717 280.233C565.045 284.02 568.867 286.831 574.253 290.935C574.805 291.358 576.475 292.616 577.957 293.745C586.189 300.025 589.799 303.048 593.763 307.034C597.538 310.821 600.595 314.714 601.771 317.218C603.794 321.523 602.853 326.038 598.749 331.707C597.973 332.765 596.362 334.823 595.679 335.623C595.538 335.787 594.962 336.47 594.398 337.152C589.482 343.02 582.708 349.711 575.934 355.391C573.159 357.72 569.678 360.519 568.008 361.789C562.704 365.799 559.212 368.363 556.425 370.315C555.837 370.726 555.049 371.279 554.661 371.55C548.098 376.148 540.96 380.252 535.433 382.628C532.234 384.003 528.742 385.226 526.437 385.779C515.1 388.519 500.388 382.533 484.642 368.798C475.81 361.095 469.906 352.534 466.637 342.691C463.568 333.459 463.25 323.545 465.708 313.69C468.472 302.636 474.834 291.687 485.653 279.398C486.899 277.975 487.346 277.658 488.217 277.552C489.604 277.399 491.333 279.116 491.333 280.645C491.333 281.444 490.98 282.068 489.616 283.644C481.525 292.981 476.421 300.848 473.081 309.163C467.872 322.111 468.225 334.823 474.128 346.595C476.645 351.616 479.785 355.944 484.218 360.483C490.333 366.728 498.013 372.126 507.679 376.947C514.194 380.193 518.91 381.334 523.391 380.734C528.73 380.029 534.527 377.477 542.959 372.138C551.768 366.552 557.377 362.694 563.351 358.108C574.335 349.676 586.013 338.645 591.705 331.342C595.421 326.568 596.891 324.145 597.196 322.275C597.526 320.311 596.256 318.018 593.116 314.855C587.53 309.233 582.849 305.082 575.064 298.861C569.302 294.251 568.055 293.275 563.775 289.982C548.216 278.011 534.927 270.037 522.732 265.357C515.782 262.687 489.628 253.738 479.926 250.716C470.012 247.623 468.366 247.105 465.343 246.106C463.568 245.518 461.027 244.659 459.699 244.189C457.511 243.401 456.676 243.095 454.289 242.166C450.467 240.684 444.728 237.909 441.412 235.969C437.39 233.605 433.097 230.559 429.758 227.701C428.793 226.878 425.383 223.609 422.184 220.434C413.952 212.284 409.942 208.697 404.897 205.004C402.463 203.229 401.686 202.7 398.864 200.924C396.406 199.383 392.22 197.172 389.433 195.949C380.518 192.033 371.828 189.999 360.679 189.199C358.104 189.011 350.495 189.011 347.743 189.199C333.867 190.14 322.918 192.116 300.939 197.643C283.428 202.041 281.37 202.535 276.948 203.37C270.092 204.663 264.929 205.204 259.485 205.204C256.286 205.204 254.628 205.087 252.37 204.734C249.959 204.346 248.724 204.052 243.373 202.617C241.692 202.159 240.41 201.876 239.692 201.818C239.093 201.77 238.587 201.747 238.563 201.77C238.54 201.794 238.81 202.311 239.163 202.923C241.198 206.404 249.677 214.26 259.661 221.915C269.269 229.277 279.723 236.168 288.826 241.131C289.637 241.566 290.578 242.084 290.931 242.272C292.483 243.119 293.036 243.413 295.541 244.659C299.68 246.741 302.75 248.081 306.56 249.493C309.065 250.422 309.406 250.598 309.841 251.151C310.546 252.056 310.688 253.35 310.17 254.349C309.641 255.396 308.971 255.749 306.936 255.996C302.491 256.56 297.987 259.865 285.298 271.872C284.098 273.001 282.699 274.33 282.181 274.812C281.664 275.306 280.123 276.764 278.771 278.069C275.749 280.951 274.984 281.656 273.479 282.95C268.869 286.901 264.906 289.241 261.249 290.159C258.579 290.829 255.416 290.735 252.052 289.888C249.347 289.206 247.207 288.395 241.668 285.972C229.367 280.598 211.127 274.106 196.804 270.014C183.95 266.345 175.471 264.804 167.286 264.663C156.502 264.463 147.906 267.086 140.591 272.813C139.039 274.024 136.052 276.94 134.593 278.657C130.383 283.644 126.867 289.206 123.01 296.991C120.928 301.201 120.058 303.118 117.224 309.751C114.754 315.513 112.849 319.958 112.426 320.923C105.899 335.764 98.5724 347.712 90.1052 357.32C88.4118 359.237 83.3667 364.27 81.7321 365.681C78.6157 368.351 75.6639 370.597 72.7357 372.537C71.8301 373.137 71.0658 373.655 71.0305 373.69C70.9364 373.796 78.0865 373.608 81.0383 373.431C94.6916 372.584 108.098 370.479 124.656 366.599C127.937 365.834 134.593 364.141 137.357 363.376C138.039 363.188 139.674 362.741 141.003 362.377C145.883 361.036 151.492 359.354 156.537 357.72L159.43 356.779L159.677 355.932C159.807 355.474 160.171 354.157 160.465 353.028C163.241 342.655 167.027 332.765 170.591 326.556C175.765 317.548 182.762 311.856 190.571 310.28C194.652 309.457 198.497 309.61 203.918 310.821C211.198 312.432 217.031 315.102 220.218 318.265C221.441 319.488 222.205 320.594 222.687 321.864C222.993 322.675 223.017 322.875 223.029 324.392C223.029 325.886 223.005 326.121 222.699 326.979C221.935 329.214 220.512 331.272 217.972 333.8C215.302 336.481 212.621 338.48 207.682 341.468C200.92 345.56 193.934 349.135 185.867 352.64C180.422 355.003 170.426 358.943 165.322 360.73C164.464 361.036 164.405 361.083 164.299 361.483C164.229 361.718 163.1 366.775 161.771 372.726C157.525 391.777 156.561 395.999 155.056 402.067C147.717 431.584 139.25 450.706 127.725 463.748C125.938 465.771 123.292 468.393 121.375 470.04C120.528 470.769 119.846 471.392 119.882 471.416C119.917 471.451 120.905 471.204 122.092 470.863C133.594 467.582 144.519 463.76 154.703 459.42C158.219 457.915 158.643 457.727 162.817 455.81C163.264 455.598 165.228 454.646 167.168 453.693C182.433 446.167 195.757 437.441 207.211 427.468C210.645 424.481 216.102 419.131 218.442 416.473C227.544 406.077 233.119 395.646 236.023 383.545C237.058 379.252 237.493 376.242 238.199 368.433C238.469 365.576 239.187 360.754 239.857 357.344C242.456 344.125 247.619 331.989 253.722 324.745C259.261 318.171 266.035 314.384 273.596 313.62C275.255 313.455 278.183 313.538 280.006 313.808C286.427 314.749 294.412 318.547 301.527 324.027C305.572 327.144 309.982 331.319 314.58 336.387C316.909 338.951 317.355 339.468 321.107 343.855C322.894 345.96 324.482 347.806 324.623 347.971C324.753 348.135 325.364 348.853 325.976 349.558C326.587 350.276 327.41 351.217 327.81 351.675C328.21 352.122 329.033 353.051 329.633 353.733C332.855 357.379 336.571 361.142 339.688 363.917C342.275 366.222 346.603 369.621 349.86 371.902C350.672 372.479 351.565 373.102 351.859 373.314C353.165 374.231 356.951 376.642 359.209 377.982C368.1 383.298 378.072 388.002 388.433 391.8C392.925 393.447 402.545 396.54 403.168 396.54C403.262 396.54 403.592 396.21 403.909 395.799C405.438 393.835 408.343 390.801 410.601 388.825C414.364 385.532 419.103 382.286 424.136 379.535C425.83 378.617 426.488 378.288 429.123 377.053C437.096 373.302 448.033 370.138 455.83 369.315C460.616 368.81 464.755 369.092 468.342 370.197C470.765 370.938 472.705 372.161 473.811 373.678C475.61 376.112 476.174 379.441 475.504 383.78C474.152 392.565 469.377 398.915 461.063 402.996C455.077 405.936 447.656 407.488 438.766 407.676C431.11 407.829 422.172 406.971 413.541 405.23C411.436 404.807 406.367 403.654 406.002 403.513C405.744 403.419 404.38 406.053 402.604 410.064C397.265 422.129 389.609 432.466 380.201 440.299C370.076 448.742 357.763 454.199 343.804 456.457C337.183 457.527 330.656 457.927 323.882 457.692C320.59 457.574 317.52 457.374 315.121 457.104C302.655 455.704 290.907 452.717 281.958 448.695C280.088 447.848 279.794 447.649 279.441 446.99C278.912 445.99 279.23 444.285 280.088 443.486C280.617 443.003 280.864 442.886 282.711 442.345C292.789 439.346 300.809 435.348 306.936 430.244C308.336 429.091 310.887 426.575 312.099 425.163C314.521 422.376 316.756 419.072 319.696 414.003C323.153 408.029 323.918 406.759 324.847 405.36C327.01 402.149 329.21 399.668 331.573 397.774C332.973 396.657 333.784 396.116 335.278 395.34C340.182 392.776 346.403 391.683 353.964 392.059C357.328 392.212 360.15 392.494 361.02 392.729C362.961 393.282 363.843 396.069 362.537 397.551C361.797 398.386 361.338 398.468 358.68 398.174C346.297 396.845 338.747 398.539 333.408 403.831C330.985 406.242 329.598 408.3 325.341 415.885C321.013 423.576 316.003 429.679 309.759 434.842C304.525 439.17 298.763 442.498 291.142 445.579C290.778 445.732 290.507 445.896 290.554 445.943C290.696 446.073 294.694 447.39 296.399 447.872C304.267 450.083 311.864 451.318 320.719 451.823C323.894 452 332.338 451.894 335.278 451.647C345.262 450.788 353.823 448.578 362.208 444.697C373.745 439.358 383.705 430.785 390.703 420.142C393.208 416.355 394.807 413.309 397.194 407.841C397.876 406.277 398.688 404.501 398.97 403.901C399.264 403.313 399.605 402.608 399.723 402.337L399.934 401.843L399.099 401.596C393.819 400.056 385.293 396.916 378.907 394.188C367.571 389.342 358.127 384.309 349.39 378.464C338.382 371.114 333.537 366.681 323.047 354.333C319.425 350.076 316.062 346.148 315.627 345.678C315.392 345.419 314.886 344.854 314.51 344.419C311.77 341.303 306.348 335.834 303.291 333.106C289.708 320.993 277.936 316.713 268.363 320.417C265.553 321.511 263.13 323.145 260.543 325.709C251.605 334.553 246.09 349.076 243.903 369.55C243.703 371.42 243.409 374.207 243.244 375.724C242.327 384.333 241.209 389.331 238.963 394.952C237.423 398.821 235.788 402.079 233.518 405.889C229.473 412.639 224.451 418.931 217.678 425.716C216.09 427.304 214.185 429.15 213.444 429.82C212.703 430.491 211.857 431.255 211.562 431.514C208.034 434.713 202.942 438.758 198.215 442.121C183.797 452.388 166.181 461.502 146.518 468.875C135.064 473.168 121.916 477.213 115.248 478.495C111.226 479.259 107.675 479.483 106.075 479.06C104.417 478.613 103.759 477.884 103.876 476.625C104.006 475.179 104.852 474.05 106.581 473.05C111.661 470.075 115.472 467.523 117.718 465.594C119.964 463.677 123.327 460.149 125.432 457.515C131.512 449.954 136.839 439.981 141.461 427.539C145.848 415.755 149.646 401.349 155.185 375.548C155.479 374.184 156.196 370.915 156.773 368.28C157.361 365.634 157.819 363.447 157.784 363.423C157.76 363.388 157.419 363.47 157.043 363.6C154.538 364.447 148.082 366.446 144.707 367.422C126.302 372.749 107.898 376.442 90.1405 378.359C83.2844 379.1 78.6274 379.37 71.4421 379.441C64.7154 379.511 59.8467 379.335 59.0236 378.994C57.6006 378.394 56.695 376.63 57.0948 375.278C57.3065 374.595 57.7887 374.102 58.7178 373.678C65.9266 370.35 72.2183 366.269 78.2041 361.024C80.1092 359.354 84.0605 355.403 85.8951 353.322C92.5278 345.795 98.4901 336.634 103.723 325.921C105.405 322.475 107.204 318.524 109.427 313.396C112.249 306.87 112.978 305.211 113.802 303.342C119.235 291.099 124.021 282.644 129.172 276.188C132.923 271.496 137.298 267.674 142.108 264.898C147.541 261.758 153.468 259.865 160.524 258.995C162.641 258.736 169.179 258.642 171.743 258.83C182.609 259.618 197.65 263.381 216.325 269.978C224.557 272.883 228.967 274.588 237.493 278.175C246.349 281.891 252.969 284.185 255.745 284.49C260.19 284.996 264.976 282.879 270.774 277.834C271.868 276.882 274.185 274.624 284.345 264.639C286.45 262.57 288.649 260.429 289.237 259.9C292.271 257.113 295.788 254.444 298.116 253.162C298.504 252.95 298.822 252.75 298.822 252.703C298.822 252.668 298.598 252.538 298.316 252.421C293.988 250.551 287.591 247.258 282.358 244.189C273.02 238.732 258.991 229.101 251.605 223.091C248.783 220.798 246.184 218.576 244.432 216.964C244.102 216.659 243.397 216.012 242.844 215.506C240.986 213.789 237.093 209.779 235.847 208.286C232.401 204.17 231.061 200.947 231.837 198.642C232.107 197.843 233.083 196.772 233.989 196.302C235.141 195.691 235.917 195.514 237.493 195.514C239.34 195.526 240.022 195.655 244.232 196.867C250.688 198.725 254.569 199.324 260.096 199.324C266.505 199.324 274.267 198.242 284.181 195.961C288.344 195.008 291.695 194.15 300.762 191.751C321.33 186.318 335.313 183.766 348.331 183.096C350.942 182.966 358.01 182.966 360.209 183.107ZM191.994 316.207C186.349 317.348 181.622 320.558 177.811 325.862C176.188 328.12 173.248 333.565 171.755 337.093C170.344 340.421 168.674 345.078 167.686 348.441C166.863 351.228 166.028 354.345 166.087 354.404C166.228 354.533 174.589 351.322 179.152 349.394C187.972 345.642 194.146 342.573 203.507 337.269C211.139 332.942 214.855 329.837 216.69 326.215C218.136 323.381 216.337 321.323 210.622 319.241C209.81 318.947 208.376 318.418 207.435 318.065C204.471 316.948 202.449 316.442 198.921 315.937C198.721 315.913 197.38 315.901 195.922 315.925C193.77 315.948 193.04 316.007 191.994 316.207ZM456.053 375.254C448.303 376.065 441.388 377.841 433.474 381.075C431.945 381.71 427.017 384.18 425.301 385.191C419.326 388.696 414.47 392.624 410.436 397.233C409.801 397.963 409.613 398.245 409.73 398.304C409.989 398.445 414.646 399.55 417.127 400.056C434.661 403.643 447.892 403.043 458.029 398.174C461.745 396.398 464.403 394.223 466.425 391.318C467.731 389.437 468.577 387.614 469.212 385.368C469.753 383.415 469.871 382.604 469.871 380.769V379.064L469.424 378.17C468.53 376.359 466.825 375.407 463.815 375.031C462.533 374.866 458.699 374.972 456.053 375.254Z"/>
</mask>
<path d="M360.209 183.107C370.37 183.731 379.096 185.636 388.08 189.176C396.159 192.362 404.18 196.925 411.424 202.488C415.316 205.463 416.704 206.745 424.654 214.742C431.592 221.704 433.474 223.491 436.084 225.584C439.283 228.16 443.364 230.735 447.574 232.84C453.701 235.898 459.205 237.968 471.811 241.954C484.289 245.894 502.105 251.88 517.499 257.278C527.319 260.723 534.433 263.863 539.725 267.086C545.935 270.872 554.002 276.164 559.717 280.233C565.045 284.02 568.867 286.831 574.253 290.935C574.805 291.358 576.475 292.616 577.957 293.745C586.189 300.025 589.799 303.048 593.763 307.034C597.538 310.821 600.595 314.714 601.771 317.218C603.794 321.523 602.853 326.038 598.749 331.707C597.973 332.765 596.362 334.823 595.679 335.623C595.538 335.787 594.962 336.47 594.398 337.152C589.482 343.02 582.708 349.711 575.934 355.391C573.159 357.72 569.678 360.519 568.008 361.789C562.704 365.799 559.212 368.363 556.425 370.315C555.837 370.726 555.049 371.279 554.661 371.55C548.098 376.148 540.96 380.252 535.433 382.628C532.234 384.003 528.742 385.226 526.437 385.779C515.1 388.519 500.388 382.533 484.642 368.798C475.81 361.095 469.906 352.534 466.637 342.691C463.568 333.459 463.25 323.545 465.708 313.69C468.472 302.636 474.834 291.687 485.653 279.398C486.899 277.975 487.346 277.658 488.217 277.552C489.604 277.399 491.333 279.116 491.333 280.645C491.333 281.444 490.98 282.068 489.616 283.644C481.525 292.981 476.421 300.848 473.081 309.163C467.872 322.111 468.225 334.823 474.128 346.595C476.645 351.616 479.785 355.944 484.218 360.483C490.333 366.728 498.013 372.126 507.679 376.947C514.194 380.193 518.91 381.334 523.391 380.734C528.73 380.029 534.527 377.477 542.959 372.138C551.768 366.552 557.377 362.694 563.351 358.108C574.335 349.676 586.013 338.645 591.705 331.342C595.421 326.568 596.891 324.145 597.196 322.275C597.526 320.311 596.256 318.018 593.116 314.855C587.53 309.233 582.849 305.082 575.064 298.861C569.302 294.251 568.055 293.275 563.775 289.982C548.216 278.011 534.927 270.037 522.732 265.357C515.782 262.687 489.628 253.738 479.926 250.716C470.012 247.623 468.366 247.105 465.343 246.106C463.568 245.518 461.027 244.659 459.699 244.189C457.511 243.401 456.676 243.095 454.289 242.166C450.467 240.684 444.728 237.909 441.412 235.969C437.39 233.605 433.097 230.559 429.758 227.701C428.793 226.878 425.383 223.609 422.184 220.434C413.952 212.284 409.942 208.697 404.897 205.004C402.463 203.229 401.686 202.7 398.864 200.924C396.406 199.383 392.22 197.172 389.433 195.949C380.518 192.033 371.828 189.999 360.679 189.199C358.104 189.011 350.495 189.011 347.743 189.199C333.867 190.14 322.918 192.116 300.939 197.643C283.428 202.041 281.37 202.535 276.948 203.37C270.092 204.663 264.929 205.204 259.485 205.204C256.286 205.204 254.628 205.087 252.37 204.734C249.959 204.346 248.724 204.052 243.373 202.617C241.692 202.159 240.41 201.876 239.692 201.818C239.093 201.77 238.587 201.747 238.563 201.77C238.54 201.794 238.81 202.311 239.163 202.923C241.198 206.404 249.677 214.26 259.661 221.915C269.269 229.277 279.723 236.168 288.826 241.131C289.637 241.566 290.578 242.084 290.931 242.272C292.483 243.119 293.036 243.413 295.541 244.659C299.68 246.741 302.75 248.081 306.56 249.493C309.065 250.422 309.406 250.598 309.841 251.151C310.546 252.056 310.688 253.35 310.17 254.349C309.641 255.396 308.971 255.749 306.936 255.996C302.491 256.56 297.987 259.865 285.298 271.872C284.098 273.001 282.699 274.33 282.181 274.812C281.664 275.306 280.123 276.764 278.771 278.069C275.749 280.951 274.984 281.656 273.479 282.95C268.869 286.901 264.906 289.241 261.249 290.159C258.579 290.829 255.416 290.735 252.052 289.888C249.347 289.206 247.207 288.395 241.668 285.972C229.367 280.598 211.127 274.106 196.804 270.014C183.95 266.345 175.471 264.804 167.286 264.663C156.502 264.463 147.906 267.086 140.591 272.813C139.039 274.024 136.052 276.94 134.593 278.657C130.383 283.644 126.867 289.206 123.01 296.991C120.928 301.201 120.058 303.118 117.224 309.751C114.754 315.513 112.849 319.958 112.426 320.923C105.899 335.764 98.5724 347.712 90.1052 357.32C88.4118 359.237 83.3667 364.27 81.7321 365.681C78.6157 368.351 75.6639 370.597 72.7357 372.537C71.8301 373.137 71.0658 373.655 71.0305 373.69C70.9364 373.796 78.0865 373.608 81.0383 373.431C94.6916 372.584 108.098 370.479 124.656 366.599C127.937 365.834 134.593 364.141 137.357 363.376C138.039 363.188 139.674 362.741 141.003 362.377C145.883 361.036 151.492 359.354 156.537 357.72L159.43 356.779L159.677 355.932C159.807 355.474 160.171 354.157 160.465 353.028C163.241 342.655 167.027 332.765 170.591 326.556C175.765 317.548 182.762 311.856 190.571 310.28C194.652 309.457 198.497 309.61 203.918 310.821C211.198 312.432 217.031 315.102 220.218 318.265C221.441 319.488 222.205 320.594 222.687 321.864C222.993 322.675 223.017 322.875 223.029 324.392C223.029 325.886 223.005 326.121 222.699 326.979C221.935 329.214 220.512 331.272 217.972 333.8C215.302 336.481 212.621 338.48 207.682 341.468C200.92 345.56 193.934 349.135 185.867 352.64C180.422 355.003 170.426 358.943 165.322 360.73C164.464 361.036 164.405 361.083 164.299 361.483C164.229 361.718 163.1 366.775 161.771 372.726C157.525 391.777 156.561 395.999 155.056 402.067C147.717 431.584 139.25 450.706 127.725 463.748C125.938 465.771 123.292 468.393 121.375 470.04C120.528 470.769 119.846 471.392 119.882 471.416C119.917 471.451 120.905 471.204 122.092 470.863C133.594 467.582 144.519 463.76 154.703 459.42C158.219 457.915 158.643 457.727 162.817 455.81C163.264 455.598 165.228 454.646 167.168 453.693C182.433 446.167 195.757 437.441 207.211 427.468C210.645 424.481 216.102 419.131 218.442 416.473C227.544 406.077 233.119 395.646 236.023 383.545C237.058 379.252 237.493 376.242 238.199 368.433C238.469 365.576 239.187 360.754 239.857 357.344C242.456 344.125 247.619 331.989 253.722 324.745C259.261 318.171 266.035 314.384 273.596 313.62C275.255 313.455 278.183 313.538 280.006 313.808C286.427 314.749 294.412 318.547 301.527 324.027C305.572 327.144 309.982 331.319 314.58 336.387C316.909 338.951 317.355 339.468 321.107 343.855C322.894 345.96 324.482 347.806 324.623 347.971C324.753 348.135 325.364 348.853 325.976 349.558C326.587 350.276 327.41 351.217 327.81 351.675C328.21 352.122 329.033 353.051 329.633 353.733C332.855 357.379 336.571 361.142 339.688 363.917C342.275 366.222 346.603 369.621 349.86 371.902C350.672 372.479 351.565 373.102 351.859 373.314C353.165 374.231 356.951 376.642 359.209 377.982C368.1 383.298 378.072 388.002 388.433 391.8C392.925 393.447 402.545 396.54 403.168 396.54C403.262 396.54 403.592 396.21 403.909 395.799C405.438 393.835 408.343 390.801 410.601 388.825C414.364 385.532 419.103 382.286 424.136 379.535C425.83 378.617 426.488 378.288 429.123 377.053C437.096 373.302 448.033 370.138 455.83 369.315C460.616 368.81 464.755 369.092 468.342 370.197C470.765 370.938 472.705 372.161 473.811 373.678C475.61 376.112 476.174 379.441 475.504 383.78C474.152 392.565 469.377 398.915 461.063 402.996C455.077 405.936 447.656 407.488 438.766 407.676C431.11 407.829 422.172 406.971 413.541 405.23C411.436 404.807 406.367 403.654 406.002 403.513C405.744 403.419 404.38 406.053 402.604 410.064C397.265 422.129 389.609 432.466 380.201 440.299C370.076 448.742 357.763 454.199 343.804 456.457C337.183 457.527 330.656 457.927 323.882 457.692C320.59 457.574 317.52 457.374 315.121 457.104C302.655 455.704 290.907 452.717 281.958 448.695C280.088 447.848 279.794 447.649 279.441 446.99C278.912 445.99 279.23 444.285 280.088 443.486C280.617 443.003 280.864 442.886 282.711 442.345C292.789 439.346 300.809 435.348 306.936 430.244C308.336 429.091 310.887 426.575 312.099 425.163C314.521 422.376 316.756 419.072 319.696 414.003C323.153 408.029 323.918 406.759 324.847 405.36C327.01 402.149 329.21 399.668 331.573 397.774C332.973 396.657 333.784 396.116 335.278 395.34C340.182 392.776 346.403 391.683 353.964 392.059C357.328 392.212 360.15 392.494 361.02 392.729C362.961 393.282 363.843 396.069 362.537 397.551C361.797 398.386 361.338 398.468 358.68 398.174C346.297 396.845 338.747 398.539 333.408 403.831C330.985 406.242 329.598 408.3 325.341 415.885C321.013 423.576 316.003 429.679 309.759 434.842C304.525 439.17 298.763 442.498 291.142 445.579C290.778 445.732 290.507 445.896 290.554 445.943C290.696 446.073 294.694 447.39 296.399 447.872C304.267 450.083 311.864 451.318 320.719 451.823C323.894 452 332.338 451.894 335.278 451.647C345.262 450.788 353.823 448.578 362.208 444.697C373.745 439.358 383.705 430.785 390.703 420.142C393.208 416.355 394.807 413.309 397.194 407.841C397.876 406.277 398.688 404.501 398.97 403.901C399.264 403.313 399.605 402.608 399.723 402.337L399.934 401.843L399.099 401.596C393.819 400.056 385.293 396.916 378.907 394.188C367.571 389.342 358.127 384.309 349.39 378.464C338.382 371.114 333.537 366.681 323.047 354.333C319.425 350.076 316.062 346.148 315.627 345.678C315.392 345.419 314.886 344.854 314.51 344.419C311.77 341.303 306.348 335.834 303.291 333.106C289.708 320.993 277.936 316.713 268.363 320.417C265.553 321.511 263.13 323.145 260.543 325.709C251.605 334.553 246.09 349.076 243.903 369.55C243.703 371.42 243.409 374.207 243.244 375.724C242.327 384.333 241.209 389.331 238.963 394.952C237.423 398.821 235.788 402.079 233.518 405.889C229.473 412.639 224.451 418.931 217.678 425.716C216.09 427.304 214.185 429.15 213.444 429.82C212.703 430.491 211.857 431.255 211.562 431.514C208.034 434.713 202.942 438.758 198.215 442.121C183.797 452.388 166.181 461.502 146.518 468.875C135.064 473.168 121.916 477.213 115.248 478.495C111.226 479.259 107.675 479.483 106.075 479.06C104.417 478.613 103.759 477.884 103.876 476.625C104.006 475.179 104.852 474.05 106.581 473.05C111.661 470.075 115.472 467.523 117.718 465.594C119.964 463.677 123.327 460.149 125.432 457.515C131.512 449.954 136.839 439.981 141.461 427.539C145.848 415.755 149.646 401.349 155.185 375.548C155.479 374.184 156.196 370.915 156.773 368.28C157.361 365.634 157.819 363.447 157.784 363.423C157.76 363.388 157.419 363.47 157.043 363.6C154.538 364.447 148.082 366.446 144.707 367.422C126.302 372.749 107.898 376.442 90.1405 378.359C83.2844 379.1 78.6274 379.37 71.4421 379.441C64.7154 379.511 59.8467 379.335 59.0236 378.994C57.6006 378.394 56.695 376.63 57.0948 375.278C57.3065 374.595 57.7887 374.102 58.7178 373.678C65.9266 370.35 72.2183 366.269 78.2041 361.024C80.1092 359.354 84.0605 355.403 85.8951 353.322C92.5278 345.795 98.4901 336.634 103.723 325.921C105.405 322.475 107.204 318.524 109.427 313.396C112.249 306.87 112.978 305.211 113.802 303.342C119.235 291.099 124.021 282.644 129.172 276.188C132.923 271.496 137.298 267.674 142.108 264.898C147.541 261.758 153.468 259.865 160.524 258.995C162.641 258.736 169.179 258.642 171.743 258.83C182.609 259.618 197.65 263.381 216.325 269.978C224.557 272.883 228.967 274.588 237.493 278.175C246.349 281.891 252.969 284.185 255.745 284.49C260.19 284.996 264.976 282.879 270.774 277.834C271.868 276.882 274.185 274.624 284.345 264.639C286.45 262.57 288.649 260.429 289.237 259.9C292.271 257.113 295.788 254.444 298.116 253.162C298.504 252.95 298.822 252.75 298.822 252.703C298.822 252.668 298.598 252.538 298.316 252.421C293.988 250.551 287.591 247.258 282.358 244.189C273.02 238.732 258.991 229.101 251.605 223.091C248.783 220.798 246.184 218.576 244.432 216.964C244.102 216.659 243.397 216.012 242.844 215.506C240.986 213.789 237.093 209.779 235.847 208.286C232.401 204.17 231.061 200.947 231.837 198.642C232.107 197.843 233.083 196.772 233.989 196.302C235.141 195.691 235.917 195.514 237.493 195.514C239.34 195.526 240.022 195.655 244.232 196.867C250.688 198.725 254.569 199.324 260.096 199.324C266.505 199.324 274.267 198.242 284.181 195.961C288.344 195.008 291.695 194.15 300.762 191.751C321.33 186.318 335.313 183.766 348.331 183.096C350.942 182.966 358.01 182.966 360.209 183.107ZM191.994 316.207C186.349 317.348 181.622 320.558 177.811 325.862C176.188 328.12 173.248 333.565 171.755 337.093C170.344 340.421 168.674 345.078 167.686 348.441C166.863 351.228 166.028 354.345 166.087 354.404C166.228 354.533 174.589 351.322 179.152 349.394C187.972 345.642 194.146 342.573 203.507 337.269C211.139 332.942 214.855 329.837 216.69 326.215C218.136 323.381 216.337 321.323 210.622 319.241C209.81 318.947 208.376 318.418 207.435 318.065C204.471 316.948 202.449 316.442 198.921 315.937C198.721 315.913 197.38 315.901 195.922 315.925C193.77 315.948 193.04 316.007 191.994 316.207ZM456.053 375.254C448.303 376.065 441.388 377.841 433.474 381.075C431.945 381.71 427.017 384.18 425.301 385.191C419.326 388.696 414.47 392.624 410.436 397.233C409.801 397.963 409.613 398.245 409.73 398.304C409.989 398.445 414.646 399.55 417.127 400.056C434.661 403.643 447.892 403.043 458.029 398.174C461.745 396.398 464.403 394.223 466.425 391.318C467.731 389.437 468.577 387.614 469.212 385.368C469.753 383.415 469.871 382.604 469.871 380.769V379.064L469.424 378.17C468.53 376.359 466.825 375.407 463.815 375.031C462.533 374.866 458.699 374.972 456.053 375.254Z" fill="#FFA216" stroke="#FFA216" stroke-width="3.5493" mask="url(#path-1-inside-1_45_21)"/>
</svg>
