<svg width="677" height="677" viewBox="0 0 677 677" fill="none" xmlns="http://www.w3.org/2000/svg">
<rect width="677" height="677" fill="#302381"/>
<path fill-rule="evenodd" clip-rule="evenodd" d="M593.927 363.275C593.928 363.165 593.929 363.054 593.93 362.943C593.932 362.841 593.933 362.738 593.934 362.636L593.931 362.636C593.986 336.593 579.184 311.483 552.708 292.752C526.015 273.868 489.643 263.014 451.592 262.578C413.542 262.143 376.931 272.161 349.812 290.429C322.914 308.549 307.541 333.313 307 359.35L306.996 359.35C306.995 359.459 306.994 359.568 306.994 359.678C306.992 359.782 306.99 359.886 306.989 359.99L306.992 359.99C306.986 363.367 307.236 366.729 307.735 370.062L245.754 455.458L339.875 422.612C342.513 424.803 345.298 426.925 348.226 428.969C374.922 447.614 411.295 458.333 449.346 458.769C487.396 459.205 524.006 449.321 551.122 431.293C578.014 413.413 593.383 388.973 593.924 363.275L593.927 363.275Z" fill="url(#paint0_linear_88_9)"/>
<circle cx="533.569" cy="341.569" r="12.5688" fill="white"/>
<path d="M209.728 475.537C168.392 509.484 142.439 526.433 78.932 543.766C89.7672 532.936 96.0958 523.39 108.814 486.935C116.377 426.062 121.833 402.883 134.946 391.88C148.897 381.027 156.463 377.494 169.514 375.338C145.594 371.181 116.442 346.3 105.02 318.539C93.5971 290.778 103.947 283.046 84.4354 237.963C79.8119 227.688 74.3944 221.509 62 210.077C99.1598 212.788 117.528 217.708 147.973 229.677C183.885 244.17 201.795 254.508 227.415 279.239C252.439 306.317 269.174 323.473 293 359C268.503 403.773 249.32 428.944 209.728 475.537Z" fill="url(#paint1_linear_88_9)"/>
<path d="M425.118 186.175C444.638 183.512 496.5 255 496.5 255C496.5 255 420.455 230.999 363.5 269C363.5 269 405.597 188.838 425.118 186.175Z" fill="url(#paint2_linear_88_9)"/>
<defs>
<linearGradient id="paint0_linear_88_9" x1="533.5" y1="353.5" x2="359" y2="403" gradientUnits="userSpaceOnUse">
<stop offset="0.15625" stop-color="#FCCA4A"/>
<stop offset="1" stop-color="#CF7D01"/>
</linearGradient>
<linearGradient id="paint1_linear_88_9" x1="62.0054" y1="377.16" x2="279.39" y2="367.186" gradientUnits="userSpaceOnUse">
<stop stop-color="#FCCA4A"/>
<stop offset="0.875" stop-color="#CF7D01"/>
</linearGradient>
<linearGradient id="paint2_linear_88_9" x1="476" y1="245.5" x2="397.5" y2="168.5" gradientUnits="userSpaceOnUse">
<stop stop-color="#FCCA4A"/>
<stop offset="0.9375" stop-color="#CF7D01"/>
</linearGradient>
</defs>
</svg>
