<svg width="572" height="441" viewBox="0 0 572 441" fill="none" xmlns="http://www.w3.org/2000/svg">
<path d="M570.363 313.321C570.363 341.261 568.209 362.885 561.558 379.668C554.945 396.359 543.852 408.338 525.733 416.944C507.534 425.587 482.233 430.833 447.23 433.902C412.249 436.969 367.718 437.853 311.137 437.853C297.417 437.853 282.446 438.142 266.733 438.446C218.193 439.384 162.57 440.458 114.883 433.565C83.3325 429.005 55.467 420.978 35.5213 407.253C15.6629 393.587 3.62304 374.261 3.62285 346.824C3.62279 337.517 3.29353 327.184 2.93972 316.081C2.15041 291.311 1.23889 262.705 3.58709 233.097C6.98252 190.284 17.1897 145.716 44.3318 108.404C67.985 75.8887 107.858 49.3018 148.427 30.8345C189.004 12.364 230.015 2.13379 255.783 2.13379C279.299 2.13379 322.861 4.85277 367.738 13.7723C412.671 22.703 458.654 37.8 487.242 62.3933C526.52 96.1828 547.317 142.691 558.284 188.927C569.252 235.162 570.363 280.999 570.363 313.321Z" fill="#677361" fill-opacity="0.4" stroke="#878D82" stroke-width="3"/>
</svg>
