<svg width="572" height="441" viewBox="0 0 572 441" fill="none" xmlns="http://www.w3.org/2000/svg">
<path d="M570.527 313.059C570.527 341.01 568.375 362.714 561.687 379.59C555.025 396.403 543.839 408.476 525.611 417.133C507.331 425.815 481.957 431.067 446.938 434.137C411.933 437.207 367.383 438.09 310.801 438.09C297.102 438.09 282.145 438.379 266.441 438.683C217.893 439.621 162.207 440.697 114.476 433.798C82.8975 429.233 54.9418 421.192 34.902 407.402C14.9203 393.651 2.78711 374.177 2.78692 346.561C2.78685 337.282 2.45819 326.965 2.10478 315.871C1.31531 291.09 0.402315 262.43 2.75271 232.795C6.15169 189.937 16.3729 145.265 43.5915 107.847C67.3165 75.2332 107.277 48.6013 147.884 30.1167C188.496 11.63 229.581 1.37109 255.447 1.37109C278.992 1.37109 322.587 4.09252 367.5 13.0192C412.45 21.9533 458.541 37.0698 487.232 61.7515C526.619 95.6343 547.453 142.254 558.435 188.548C569.417 234.843 570.527 280.728 570.527 313.059Z" fill="#9F9F9F" fill-opacity="0.3" stroke="#9F9F9F" stroke-width="2"/>
</svg>
